<?xml version="1.0" standalone="yes"?>

<svg version="1.1" viewBox="0.0 0.0 360.0 180.0" fill="none" stroke="none" stroke-linecap="square" stroke-miterlimit="10" xmlns="http://www.w3.org/2000/svg" xmlns:xlink="http://www.w3.org/1999/xlink"><clipPath id="p.0"><path d="m0 0l360.0 0l0 180.0l-360.0 0l0 -180.0z" clip-rule="nonzero"></path></clipPath><g clip-path="url(#p.0)"><path fill="#000000" fill-opacity="0.0" d="m0 0l360.0 0l0 180.0l-360.0 0z" fill-rule="nonzero"></path><path fill="#ffff00" d="m135.55557 82.94226l9.795273 19.181099l9.795273 -19.181099z" fill-rule="nonzero"></path><path stroke="#000000" stroke-width="1.0" stroke-linejoin="round" stroke-linecap="butt" d="m135.55557 82.94226l9.795273 19.181099l9.795273 -19.181099z" fill-rule="nonzero"></path><path fill="#00ff00" d="m206.07355 83.002625l9.795273 19.181099l9.795273 -19.181099z" fill-rule="nonzero"></path><path stroke="#000000" stroke-width="1.0" stroke-linejoin="round" stroke-linecap="butt" d="m206.07355 83.002625l9.795273 19.181099l9.795273 -19.181099z" fill-rule="nonzero"></path><path fill="#ea9999" d="m16.687664 81.761375l9.795275 20.88189l9.795275 -20.88189z" fill-rule="nonzero"></path><path stroke="#000000" stroke-width="1.0" stroke-linejoin="round" stroke-linecap="butt" d="m16.687664 81.761375l9.795275 20.88189l9.795275 -20.88189z" fill-rule="nonzero"></path><path fill="#a4c2f4" d="m325.86615 82.871414l8.992126 19.181099l8.992126 -19.181099z" fill-rule="nonzero"></path><path stroke="#000000" stroke-width="1.0" stroke-linejoin="round" stroke-linecap="butt" d="m325.86615 82.871414l8.992126 19.181099l8.992126 -19.181099z" fill-rule="nonzero"></path><path fill="#000000" fill-opacity="0.0" d="m128.40596 56.67232l33.88977 0l0 32.976376l-33.88977 0z" fill-rule="nonzero"></path><path fill="#000000" d="m138.81221 80.08051l0 -13.59375l2.71875 0l3.21875 9.625q0.4375 1.34375 0.640625 2.015625q0.234375 -0.75 0.734375 -2.1875l3.25 -9.453125l2.421875 0l0 13.59375l-1.734375 0l0 -11.390625l-3.953125 11.390625l-1.625 0l-3.9375 -11.578125l0 11.578125l-1.734375 0z" fill-rule="nonzero"></path><path fill="#000000" fill-opacity="0.0" d="m10.866141 56.341476l33.889763 0l0 30.3937l-33.889763 0z" fill-rule="nonzero"></path><path fill="#000000" d="m19.834892 78.45833l5.234375 -13.59375l1.9375 0l5.5625 13.59375l-2.046875 0l-1.59375 -4.125l-5.6875 0l-1.484375 4.125l-1.921875 0zm3.921875 -5.578125l4.609375 0l-1.40625 -3.78125q-0.65625 -1.703125 -0.96875 -2.8125q-0.265625 1.3125 -0.734375 2.59375l-1.5 4.0z" fill-rule="nonzero"></path><path fill="#000000" fill-opacity="0.0" d="m198.9252 56.47282l33.889755 0l0 32.976376l-33.889755 0z" fill-rule="nonzero"></path><path fill="#000000" d="m209.37833 79.881004l0 -13.59375l1.84375 0l7.140625 10.671875l0 -10.671875l1.71875 0l0 13.59375l-1.84375 0l-7.140625 -10.6875l0 10.6875l-1.71875 0z" fill-rule="nonzero"></path><path fill="#000000" fill-opacity="0.0" d="m318.8714 56.60144l33.88977 0l0 32.97638l-33.88977 0z" fill-rule="nonzero"></path><path fill="#000000" d="m329.26202 80.00963l0 -13.59375l5.109375 0q1.546875 0 2.484375 0.40625q0.953125 0.40625 1.484375 1.265625q0.53125 0.859375 0.53125 1.796875q0 0.875 -0.46875 1.65625q-0.46875 0.765625 -1.4375 1.234375q1.234375 0.359375 1.890625 1.234375q0.671875 0.875 0.671875 2.0625q0 0.953125 -0.40625 1.78125q-0.390625 0.8125 -0.984375 1.265625q-0.59375 0.4375 -1.5 0.671875q-0.890625 0.21875 -2.1875 0.21875l-5.1875 0zm1.796875 -7.890625l2.9375 0q1.203125 0 1.71875 -0.15625q0.6875 -0.203125 1.03125 -0.671875q0.359375 -0.46875 0.359375 -1.1875q0 -0.671875 -0.328125 -1.1875q-0.328125 -0.515625 -0.9375 -0.703125q-0.59375 -0.203125 -2.0625 -0.203125l-2.71875 0l0 4.109375zm0 6.28125l3.390625 0q0.875 0 1.21875 -0.0625q0.625 -0.109375 1.046875 -0.359375q0.421875 -0.265625 0.6875 -0.765625q0.265625 -0.5 0.265625 -1.140625q0 -0.765625 -0.390625 -1.328125q-0.390625 -0.5625 -1.078125 -0.78125q-0.6875 -0.234375 -1.984375 -0.234375l-3.15625 0l0 4.671875z" fill-rule="nonzero"></path><path fill="#000000" fill-opacity="0.0" d="m145.59842 52.619423l70.48819 0" fill-rule="nonzero"></path><path stroke="#000000" stroke-width="1.0" stroke-linejoin="round" stroke-linecap="butt" d="m145.59842 52.619423l70.48819 0" fill-rule="nonzero"></path><path fill="#000000" fill-opacity="0.0" d="m145.35085 56.67232l0 0" fill-rule="nonzero"></path><path stroke="#000000" stroke-width="1.0" stroke-linejoin="round" stroke-linecap="butt" d="m145.35085 56.67232l0 0" fill-rule="nonzero"></path><path fill="#000000" fill-opacity="0.0" d="m145.48209 63.677166l0 -11.118111" fill-rule="nonzero"></path><path stroke="#000000" stroke-width="1.0" stroke-linejoin="round" stroke-linecap="butt" d="m145.48209 63.677166l0 -11.118111" fill-rule="nonzero"></path><path fill="#000000" fill-opacity="0.0" d="m215.86876 63.23622l0 -10.677166" fill-rule="nonzero"></path><path stroke="#000000" stroke-width="1.0" stroke-linejoin="round" stroke-linecap="butt" d="m215.86876 63.23622l0 -10.677166" fill-rule="nonzero"></path><path fill="#000000" fill-opacity="0.0" d="m26.532808 20.931759l309.7323 0" fill-rule="nonzero"></path><path stroke="#000000" stroke-width="1.0" stroke-linejoin="round" stroke-linecap="butt" d="m26.532808 20.931759l309.7323 0" fill-rule="nonzero"></path><path fill="#000000" fill-opacity="0.0" d="m27.811024 56.341476l0 0" fill-rule="nonzero"></path><path stroke="#000000" stroke-width="1.0" stroke-linejoin="round" stroke-linecap="butt" d="m27.811024 56.341476l0 0" fill-rule="nonzero"></path><path fill="#000000" fill-opacity="0.0" d="m26.451443 20.80315l0 42.299213" fill-rule="nonzero"></path><path stroke="#000000" stroke-width="1.0" stroke-linejoin="round" stroke-linecap="butt" d="m26.451443 20.80315l0 36.299213" fill-rule="evenodd"></path><path fill="#000000" stroke="#000000" stroke-width="1.0" stroke-linecap="butt" d="m24.799711 57.102364l1.6517315 4.5380974l1.6517334 -4.5380974z" fill-rule="evenodd"></path><path fill="#000000" fill-opacity="0.0" d="m335.81628 21.225721l0 42.14173" fill-rule="nonzero"></path><path stroke="#000000" stroke-width="1.0" stroke-linejoin="round" stroke-linecap="butt" d="m335.81628 27.225721l0 36.14173" fill-rule="evenodd"></path><path fill="#000000" stroke="#000000" stroke-width="1.0" stroke-linecap="butt" d="m337.46802 27.225721l-1.6517334 -4.5380974l-1.6517334 4.5380974z" fill-rule="evenodd"></path><path fill="#000000" fill-opacity="0.0" d="m43.396324 81.761154l-33.889763 0l0 14.929138l33.889763 0z" fill-rule="nonzero"></path><path fill="#ff0000" d="m25.347713 94.1926l0 -3.546875l-3.5625 0l0 -2.4375l3.5625 0l0 -3.53125l2.375 0l0 3.53125l3.578125 0l0 2.4375l-3.578125 0l0 3.546875l-2.375 0z" fill-rule="nonzero"></path><path fill="#000000" fill-opacity="0.0" d="m348.6378 79.9764l-27.559052 0l0 14.929131l27.559052 0z" fill-rule="nonzero"></path><path fill="#0000ff" d="m331.4381 91.40285l0 -3.296875l6.46875 0l0 3.296875l-6.46875 0z" fill-rule="nonzero"></path><path fill="#ffffff" d="m168.15355 52.619423l0 0c0 -6.8796425 5.5770416 -12.456692 12.45668 -12.456692l0 0c3.3037262 0 6.4721375 1.312397 8.808212 3.6484795c2.33609 2.3360825 3.6484833 5.50449 3.6484833 8.808212l0 0c0 6.8796425 -5.5770416 12.456696 -12.456696 12.456696l0 0c-6.8796387 0 -12.45668 -5.577053 -12.45668 -12.456696z" fill-rule="nonzero"></path><path stroke="#000000" stroke-width="1.0" stroke-linejoin="round" stroke-linecap="butt" d="m168.15355 52.619423l0 0c0 -6.8796425 5.5770416 -12.456692 12.45668 -12.456692l0 0c3.3037262 0 6.4721375 1.312397 8.808212 3.6484795c2.33609 2.3360825 3.6484833 5.50449 3.6484833 8.808212l0 0c0 6.8796425 -5.5770416 12.456696 -12.456696 12.456696l0 0c-6.8796387 0 -12.45668 -5.577053 -12.45668 -12.456696z" fill-rule="nonzero"></path><path fill="#000000" fill-opacity="0.0" d="m164.76903 45.09449l31.685043 0l0 14.929131l-31.685043 0z" fill-rule="nonzero"></path><path fill="#000000" d="m179.74913 59.479053l-5.28125 -13.59375l1.953125 0l3.53125 9.875q0.4375 1.1875 0.71875 2.21875q0.3125 -1.109375 0.734375 -2.21875l3.671875 -9.875l1.84375 0l-5.328125 13.59375l-1.84375 0z" fill-rule="nonzero"></path><path fill="#000000" fill-opacity="0.0" d="m0.6351706 103.49344l357.88977 0" fill-rule="nonzero"></path><path stroke="#999999" stroke-width="1.0" stroke-linejoin="round" stroke-linecap="butt" d="m0.6351706 103.49344l357.88977 0" fill-rule="nonzero"></path><path fill="#000000" fill-opacity="0.0" d="m145.35085 102.12336l0 38.362206" fill-rule="nonzero"></path><path stroke="#000000" stroke-width="1.0" stroke-linejoin="round" stroke-linecap="butt" stroke-dasharray="4.0,3.0" d="m145.35085 102.12336l0 38.362206" fill-rule="nonzero"></path><path fill="#000000" fill-opacity="0.0" d="m334.85828 102.05251l0 66.04725" fill-rule="nonzero"></path><path stroke="#000000" stroke-width="1.0" stroke-linejoin="round" stroke-linecap="butt" stroke-dasharray="4.0,3.0" d="m334.85828 102.05251l0 66.04725" fill-rule="nonzero"></path><path fill="#000000" fill-opacity="0.0" d="m334.95276 140.7441l-189.35434 0" fill-rule="nonzero"></path><path stroke="#000000" stroke-width="1.0" stroke-linejoin="round" stroke-linecap="butt" d="m331.52567 140.7441l-182.50015 0" fill-rule="evenodd"></path><path fill="#000000" stroke="#000000" stroke-width="1.0" stroke-linecap="butt" d="m331.52567 140.7441l-1.1245728 1.124588l3.0897522 -1.124588l-3.0897522 -1.124588z" fill-rule="evenodd"></path><path fill="#000000" stroke="#000000" stroke-width="1.0" stroke-linecap="butt" d="m149.02551 140.7441l1.124588 -1.124588l-3.0897675 1.124588l3.0897675 1.124588z" fill-rule="evenodd"></path><path fill="#ffffff" d="m232.81496 132.87665l48.72441 0l0 14.929123l-48.72441 0z" fill-rule="nonzero"></path><path fill="#000000" d="m244.59123 147.2612l0 -13.59375l2.71875 0l3.21875 9.625q0.4375 1.34375 0.640625 2.015625q0.234375 -0.75 0.734375 -2.1875l3.25 -9.453125l2.4218597 0l0 13.59375l-1.7343597 0l0 -11.390625l-3.953125 11.390625l-1.625 0l-3.9375 -11.578125l0 11.578125l-1.734375 0zm15.525162 0l0 -13.59375l5.109375 0q1.546875 0 2.484375 0.40625q0.953125 0.40625 1.484375 1.265625q0.53125 0.859375 0.53125 1.796875q0 0.875 -0.46875 1.65625q-0.46875 0.765625 -1.4375 1.234375q1.234375 0.359375 1.890625 1.234375q0.671875 0.875 0.671875 2.0625q0 0.953125 -0.40625 1.78125q-0.390625 0.8125 -0.984375 1.265625q-0.59375 0.4375 -1.5 0.671875q-0.890625 0.21875 -2.1875 0.21875l-5.1875 0zm1.796875 -7.890625l2.9375 0q1.203125 0 1.71875 -0.15625q0.6875 -0.203125 1.03125 -0.671875q0.359375 -0.46875 0.359375 -1.1875q0 -0.671875 -0.328125 -1.1875q-0.328125 -0.515625 -0.9375 -0.703125q-0.59375 -0.203125 -2.0625 -0.203125l-2.71875 0l0 4.109375zm0 6.28125l3.390625 0q0.875 0 1.21875 -0.0625q0.625 -0.109375 1.046875 -0.359375q0.421875 -0.265625 0.6875 -0.765625q0.265625 -0.5 0.265625 -1.140625q0 -0.765625 -0.390625 -1.328125q-0.390625 -0.5625 -1.078125 -0.78125q-0.6875 -0.234375 -1.984375 -0.234375l-3.15625 0l0 4.671875z" fill-rule="nonzero"></path><path fill="#000000" fill-opacity="0.0" d="m145.51706 122.12008l-118.89764 0" fill-rule="nonzero"></path><path stroke="#000000" stroke-width="1.0" stroke-linejoin="round" stroke-linecap="butt" d="m142.08998 122.12008l-112.04347 0" fill-rule="evenodd"></path><path fill="#000000" stroke="#000000" stroke-width="1.0" stroke-linecap="butt" d="m142.08998 122.12008l-1.124588 1.1245804l3.0897675 -1.1245804l-3.0897675 -1.1245804z" fill-rule="evenodd"></path><path fill="#000000" stroke="#000000" stroke-width="1.0" stroke-linecap="butt" d="m30.046509 122.12008l1.1245842 -1.1245804l-3.0897675 1.1245804l3.0897675 1.1245804z" fill-rule="evenodd"></path><path fill="#ffffff" d="m67.09843 113.694885l48.72441 0l0 16.850388l-48.72441 0z" fill-rule="nonzero"></path><path fill="#000000" d="m77.437195 129.04007l5.234375 -13.593742l1.9375 0l5.5625 13.593742l-2.046875 0l-1.59375 -4.1249924l-5.6875 0l-1.484375 4.1249924l-1.921875 0zm3.921875 -5.5781174l4.609375 0l-1.40625 -3.78125q-0.65625 -1.703125 -0.96875 -2.8125q-0.265625 1.3125 -0.734375 2.59375l-1.5 4.0zm9.959198 5.5781174l0 -13.593742l2.71875 0l3.21875 9.625q0.4375 1.34375 0.640625 2.015625q0.234375 -0.75 0.734375 -2.1875l3.25 -9.453125l2.421875 0l0 13.593742l-1.734375 0l0 -11.390617l-3.953125 11.390617l-1.625 0l-3.9375 -11.578117l0 11.578117l-1.734375 0z" fill-rule="nonzero"></path><path fill="#000000" fill-opacity="0.0" d="m26.482939 102.643265l0 65.732285" fill-rule="nonzero"></path><path stroke="#000000" stroke-width="1.0" stroke-linejoin="round" stroke-linecap="butt" stroke-dasharray="4.0,3.0" d="m26.482939 102.643265l0 65.732285" fill-rule="nonzero"></path><path fill="#000000" fill-opacity="0.0" d="m335.16534 166.04462l-308.85037 0" fill-rule="nonzero"></path><path stroke="#000000" stroke-width="1.0" stroke-linejoin="round" stroke-linecap="butt" d="m331.73828 166.04462l-301.99625 0" fill-rule="evenodd"></path><path fill="#000000" stroke="#000000" stroke-width="1.0" stroke-linecap="butt" d="m331.73828 166.04462l-1.1246033 1.124588l3.0897827 -1.124588l-3.0897827 -1.124588z" fill-rule="evenodd"></path><path fill="#000000" stroke="#000000" stroke-width="1.0" stroke-linecap="butt" d="m29.742046 166.04462l1.1245842 -1.124588l-3.0897675 1.124588l3.0897675 1.124588z" fill-rule="evenodd"></path><path fill="#000000" fill-opacity="0.0" d="m335.18634 122.12008l-119.30707 0" fill-rule="nonzero"></path><path stroke="#000000" stroke-width="1.0" stroke-linejoin="round" stroke-linecap="butt" d="m331.75928 122.12008l-112.45293 0" fill-rule="evenodd"></path><path fill="#000000" stroke="#000000" stroke-width="1.0" stroke-linecap="butt" d="m331.75928 122.12008l-1.1246033 1.1245804l3.0897827 -1.1245804l-3.0897827 -1.1245804z" fill-rule="evenodd"></path><path fill="#000000" stroke="#000000" stroke-width="1.0" stroke-linecap="butt" d="m219.30635 122.12008l1.124588 -1.1245804l-3.0897675 1.1245804l3.0897675 1.1245804z" fill-rule="evenodd"></path><path fill="#ffffff" d="m157.99344 158.58005l45.354324 0l0 14.929138l-45.354324 0z" fill-rule="nonzero"></path><path fill="#000000" d="m168.19579 172.96461l5.234375 -13.59375l1.9375 0l5.5625 13.59375l-2.046875 0l-1.59375 -4.125l-5.6875 0l-1.484375 4.125l-1.921875 0zm3.921875 -5.578125l4.609375 0l-1.40625 -3.78125q-0.65625 -1.703125 -0.96875 -2.8125q-0.265625 1.3125 -0.734375 2.59375l-1.5 4.0zm9.943573 5.578125l0 -13.59375l5.109375 0q1.546875 0 2.484375 0.40625q0.953125 0.40625 1.484375 1.265625q0.53125 0.859375 0.53125 1.796875q0 0.875 -0.46875 1.65625q-0.46875 0.765625 -1.4375 1.234375q1.234375 0.359375 1.890625 1.234375q0.671875 0.875 0.671875 2.0625q0 0.953125 -0.40625 1.78125q-0.390625 0.8125 -0.984375 1.265625q-0.59375 0.4375 -1.5 0.671875q-0.890625 0.21875 -2.1875 0.21875l-5.1875 0zm1.796875 -7.890625l2.9375 0q1.203125 0 1.71875 -0.15625q0.6875 -0.203125 1.03125 -0.671875q0.359375 -0.46875 0.359375 -1.1875q0 -0.671875 -0.328125 -1.1875q-0.328125 -0.515625 -0.9375 -0.703125q-0.59375 -0.203125 -2.0625 -0.203125l-2.71875 0l0 4.109375zm0 6.28125l3.390625 0q0.875 0 1.21875 -0.0625q0.625 -0.109375 1.046875 -0.359375q0.421875 -0.265625 0.6875 -0.765625q0.265625 -0.5 0.265625 -1.140625q0 -0.765625 -0.390625 -1.328125q-0.390625 -0.5625 -1.078125 -0.78125q-0.6875 -0.234375 -1.984375 -0.234375l-3.15625 0l0 4.671875z" fill-rule="nonzero"></path><path fill="#ffffff" d="m252.6811 114.230316l45.354324 0l0 15.779526l-45.354324 0z" fill-rule="nonzero"></path><path fill="#000000" d="m263.85312 129.04007l0 -13.593742l1.84375 0l7.140625 10.671875l0 -10.671875l1.71875 0l0 13.593742l-1.84375 0l-7.140625 -10.687492l0 10.687492l-1.71875 0zm13.410461 0l0 -13.593742l5.109375 0q1.546875 0 2.484375 0.40625q0.953125 0.40625 1.484375 1.265625q0.53125 0.859375 0.53125 1.796875q0 0.875 -0.46875 1.65625q-0.46875 0.765625 -1.4375 1.234375q1.234375 0.359375 1.890625 1.234375q0.671875 0.875 0.671875 2.0625q0 0.953125 -0.40625 1.78125q-0.390625 0.8125 -0.984375 1.2656174q-0.59375 0.4375 -1.5 0.671875q-0.890625 0.21875 -2.1875 0.21875l-5.1875 0zm1.796875 -7.8906174l2.9375 0q1.203125 0 1.71875 -0.15625q0.6875 -0.203125 1.03125 -0.671875q0.359375 -0.46875 0.359375 -1.1875q0 -0.671875 -0.328125 -1.1875q-0.328125 -0.515625 -0.9375 -0.703125q-0.59375 -0.203125 -2.0625 -0.203125l-2.71875 0l0 4.109375zm0 6.28125l3.390625 0q0.875 0 1.21875 -0.0625q0.625 -0.109375 1.046875 -0.359375q0.421875 -0.265625 0.6875 -0.765625q0.265625 -0.5 0.265625 -1.140625q0 -0.765625 -0.390625 -1.328125q-0.390625 -0.5625 -1.078125 -0.78125q-0.6875 -0.234375 -1.984375 -0.234375l-3.15625 0l0 4.671875z" fill-rule="nonzero"></path><path fill="#ffffff" d="m168.67717 21.102362l0 0c0 -6.8796406 5.5770416 -12.456693 12.456696 -12.456693l0 0c3.303711 0 6.472122 1.312398 8.808212 3.6484814c2.3360748 2.3360825 3.648468 5.504491 3.648468 8.808211l0 0c0 6.8796425 -5.5770416 12.456694 -12.45668 12.456694l0 0c-6.879654 0 -12.456696 -5.577051 -12.456696 -12.456694z" fill-rule="nonzero"></path><path stroke="#000000" stroke-width="1.0" stroke-linejoin="round" stroke-linecap="butt" d="m168.67717 21.102362l0 0c0 -6.8796406 5.5770416 -12.456693 12.456696 -12.456693l0 0c3.303711 0 6.472122 1.312398 8.808212 3.6484814c2.3360748 2.3360825 3.648468 5.504491 3.648468 8.808211l0 0c0 6.8796425 -5.5770416 12.456694 -12.45668 12.456694l0 0c-6.879654 0 -12.456696 -5.577051 -12.456696 -12.456694z" fill-rule="nonzero"></path><path fill="#000000" fill-opacity="0.0" d="m165.29134 13.467192l31.685043 0l0 14.929134l-31.685043 0z" fill-rule="nonzero"></path><path fill="#000000" d="m180.30783 27.851757l0 -13.59375l1.8125 0l0 13.59375l-1.8125 0z" fill-rule="nonzero"></path><path fill="#000000" fill-opacity="0.0" d="m215.86877 101.9554l0 48.7874" fill-rule="nonzero"></path><path stroke="#000000" stroke-width="1.0" stroke-linejoin="round" stroke-linecap="butt" stroke-dasharray="4.0,3.0" d="m215.86877 101.9554l0 48.7874" fill-rule="nonzero"></path><path fill="#000000" fill-opacity="0.0" d="m215.85826 149.66273l-189.5433 0" fill-rule="nonzero"></path><path stroke="#000000" stroke-width="1.0" stroke-linejoin="round" stroke-linecap="butt" d="m212.43118 149.66273l-182.68913 0" fill-rule="evenodd"></path><path fill="#000000" stroke="#000000" stroke-width="1.0" stroke-linecap="butt" d="m212.43118 149.66273l-1.124588 1.1245728l3.0897675 -1.1245728l-3.0897675 -1.124588z" fill-rule="evenodd"></path><path fill="#000000" stroke="#000000" stroke-width="1.0" stroke-linecap="butt" d="m29.742046 149.66273l1.1245842 -1.124588l-3.0897675 1.124588l3.0897675 1.1245728z" fill-rule="evenodd"></path><path fill="#ffffff" d="m93.10499 142.19817l45.354332 0l0 14.929138l-45.354332 0z" fill-rule="nonzero"></path><path fill="#000000" d="m102.79264 156.58273l5.234375 -13.59375l1.9375 0l5.5625 13.59375l-2.046875 0l-1.59375 -4.125l-5.6875 0l-1.484375 4.125l-1.921875 0zm3.921875 -5.578125l4.609375 0l-1.40625 -3.78125q-0.65625 -1.703125 -0.96875 -2.8125q-0.265625 1.3125 -0.734375 2.59375l-1.5 4.0zm10.006073 5.578125l0 -13.59375l1.84375 0l7.140625 10.671875l0 -10.671875l1.71875 0l0 13.59375l-1.84375 0l-7.140625 -10.6875l0 10.6875l-1.71875 0z" fill-rule="nonzero"></path><path fill="#000000" fill-opacity="0.0" d="m216.1181 122.12008l-70.89763 0" fill-rule="nonzero"></path><path stroke="#000000" stroke-width="1.0" stroke-linejoin="round" stroke-linecap="butt" d="m212.69102 122.12008l-64.04347 0" fill-rule="evenodd"></path><path fill="#000000" stroke="#000000" stroke-width="1.0" stroke-linecap="butt" d="m212.69102 122.12008l-1.124588 1.1245804l3.0897675 -1.1245804l-3.0897675 -1.1245804z" fill-rule="evenodd"></path><path fill="#000000" stroke="#000000" stroke-width="1.0" stroke-linecap="butt" d="m148.64755 122.12008l1.124588 -1.1245804l-3.0897675 1.1245804l3.0897675 1.1245804z" fill-rule="evenodd"></path><path fill="#ffffff" d="m155.80971 114.65551l49.76378 0l0 14.929131l-49.76378 0z" fill-rule="nonzero"></path><path fill="#000000" d="m167.59097 129.04007l0 -13.593742l2.71875 0l3.21875 9.625q0.4375 1.34375 0.640625 2.015625q0.234375 -0.75 0.734375 -2.1875l3.25 -9.453125l2.421875 0l0 13.593742l-1.734375 0l0 -11.390617l-3.953125 11.390617l-1.625 0l-3.9375 -11.578117l0 11.578117l-1.734375 0zm15.587677 0l0 -13.593742l1.84375 0l7.140625 10.671875l0 -10.671875l1.71875 0l0 13.593742l-1.84375 0l-7.140625 -10.687492l0 10.687492l-1.71875 0z" fill-rule="nonzero"></path></g></svg>

