<?xml version="1.0" standalone="yes"?>

<svg version="1.1" viewBox="0.0 0.0 360.0 180.0" fill="none" stroke="none" stroke-linecap="square" stroke-miterlimit="10" xmlns="http://www.w3.org/2000/svg" xmlns:xlink="http://www.w3.org/1999/xlink"><clipPath id="p.0"><path d="m0 0l360.0 0l0 180.0l-360.0 0l0 -180.0z" clip-rule="nonzero"></path></clipPath><g clip-path="url(#p.0)"><path fill="#000000" fill-opacity="0.0" d="m0 0l360.0 0l0 180.0l-360.0 0z" fill-rule="nonzero"></path><path fill="#ffff00" d="m135.97552 79.00787l9.795273 19.181107l9.795273 -19.181107z" fill-rule="nonzero"></path><path stroke="#000000" stroke-width="1.0" stroke-linejoin="round" stroke-linecap="butt" d="m135.97552 79.00787l9.795273 19.181107l9.795273 -19.181107z" fill-rule="nonzero"></path><path fill="#00ff00" d="m206.49348 79.068245l9.795273 19.181099l9.795288 -19.181099z" fill-rule="nonzero"></path><path stroke="#000000" stroke-width="1.0" stroke-linejoin="round" stroke-linecap="butt" d="m206.49348 79.068245l9.795273 19.181099l9.795288 -19.181099z" fill-rule="nonzero"></path><path fill="#ea9999" d="m17.10761 77.826996l9.795277 20.88189l9.795275 -20.88189z" fill-rule="nonzero"></path><path stroke="#000000" stroke-width="1.0" stroke-linejoin="round" stroke-linecap="butt" d="m17.10761 77.826996l9.795277 20.88189l9.795275 -20.88189z" fill-rule="nonzero"></path><path fill="#a4c2f4" d="m326.2861 78.93703l8.992126 19.181107l8.992126 -19.181107z" fill-rule="nonzero"></path><path stroke="#000000" stroke-width="1.0" stroke-linejoin="round" stroke-linecap="butt" d="m326.2861 78.93703l8.992126 19.181107l8.992126 -19.181107z" fill-rule="nonzero"></path><path fill="#000000" fill-opacity="0.0" d="m128.82591 52.737938l33.88977 0l0 32.97638l-33.88977 0z" fill-rule="nonzero"></path><path fill="#000000" d="m139.23216 76.146126l0 -13.59375l2.71875 0l3.21875 9.625q0.4375 1.34375 0.640625 2.015625q0.234375 -0.75 0.734375 -2.1875l3.25 -9.453125l2.421875 0l0 13.59375l-1.734375 0l0 -11.390625l-3.953125 11.390625l-1.625 0l-3.9375 -11.578125l0 11.578125l-1.734375 0z" fill-rule="nonzero"></path><path fill="#000000" fill-opacity="0.0" d="m11.286089 52.407093l33.889763 0l0 30.393703l-33.889763 0z" fill-rule="nonzero"></path><path fill="#000000" d="m20.254839 74.52394l5.234375 -13.59375l1.9375 0l5.562502 13.59375l-2.046877 0l-1.59375 -4.125l-5.6875 0l-1.484375 4.125l-1.921875 0zm3.921875 -5.578125l4.609375 0l-1.40625 -3.78125q-0.65625 -1.703125 -0.96875 -2.8125q-0.265625 1.3125 -0.734375 2.59375l-1.5 4.0z" fill-rule="nonzero"></path><path fill="#000000" fill-opacity="0.0" d="m199.34514 52.538437l33.88977 0l0 32.97638l-33.88977 0z" fill-rule="nonzero"></path><path fill="#000000" d="m209.79826 75.946625l0 -13.59375l1.84375 0l7.140625 10.671875l0 -10.671875l1.71875 0l0 13.59375l-1.84375 0l-7.140625 -10.6875l0 10.6875l-1.71875 0z" fill-rule="nonzero"></path><path fill="#000000" fill-opacity="0.0" d="m319.29135 52.667057l33.88974 0l0 32.976383l-33.88974 0z" fill-rule="nonzero"></path><path fill="#000000" d="m329.68198 76.07525l0 -13.593754l5.109375 0q1.546875 0 2.484375 0.40625q0.953125 0.40625 1.484375 1.2656288q0.53125 0.859375 0.53125 1.796875q0 0.875 -0.46875 1.65625q-0.46875 0.765625 -1.4375 1.234375q1.234375 0.359375 1.890625 1.234375q0.671875 0.875 0.671875 2.0625q0 0.953125 -0.40625 1.78125q-0.390625 0.8125 -0.984375 1.265625q-0.59375 0.4375 -1.5 0.671875q-0.890625 0.21875 -2.1875 0.21875l-5.1875 0zm1.796875 -7.890625l2.9375 0q1.203125 0 1.71875 -0.15625q0.6875 -0.203125 1.03125 -0.671875q0.359375 -0.46875 0.359375 -1.1875q0 -0.671875 -0.328125 -1.1875q-0.328125 -0.515625 -0.9375 -0.703125q-0.59375 -0.203125 -2.0625 -0.203125l-2.71875 0l0 4.109375zm0 6.28125l3.390625 0q0.875 0 1.21875 -0.0625q0.625 -0.109375 1.046875 -0.359375q0.421875 -0.265625 0.6875 -0.765625q0.265625 -0.5 0.265625 -1.140625q0 -0.765625 -0.390625 -1.328125q-0.390625 -0.5625 -1.078125 -0.78125q-0.6875 -0.234375 -1.984375 -0.234375l-3.15625 0l0 4.671875z" fill-rule="nonzero"></path><path fill="#000000" fill-opacity="0.0" d="m146.01837 48.68504l70.48819 0" fill-rule="nonzero"></path><path stroke="#000000" stroke-width="1.0" stroke-linejoin="round" stroke-linecap="butt" d="m146.01837 48.68504l70.48819 0" fill-rule="nonzero"></path><path fill="#000000" fill-opacity="0.0" d="m145.7708 52.737938l0 0" fill-rule="nonzero"></path><path stroke="#000000" stroke-width="1.0" stroke-linejoin="round" stroke-linecap="butt" d="m145.7708 52.737938l0 0" fill-rule="nonzero"></path><path fill="#000000" fill-opacity="0.0" d="m145.90202 59.742783l0 -11.118111" fill-rule="nonzero"></path><path stroke="#000000" stroke-width="1.0" stroke-linejoin="round" stroke-linecap="butt" d="m145.90202 59.742783l0 -11.118111" fill-rule="nonzero"></path><path fill="#000000" fill-opacity="0.0" d="m216.28871 59.301838l0 -10.677166" fill-rule="nonzero"></path><path stroke="#000000" stroke-width="1.0" stroke-linejoin="round" stroke-linecap="butt" d="m216.28871 59.301838l0 -10.677166" fill-rule="nonzero"></path><path fill="#000000" fill-opacity="0.0" d="m26.952755 16.997375l309.73227 0" fill-rule="nonzero"></path><path stroke="#000000" stroke-width="1.0" stroke-linejoin="round" stroke-linecap="butt" d="m26.952755 16.997375l309.73227 0" fill-rule="nonzero"></path><path fill="#000000" fill-opacity="0.0" d="m28.23097 52.407093l0 0" fill-rule="nonzero"></path><path stroke="#000000" stroke-width="1.0" stroke-linejoin="round" stroke-linecap="butt" d="m28.23097 52.407093l0 0" fill-rule="nonzero"></path><path fill="#000000" fill-opacity="0.0" d="m26.871391 16.868767l0 42.299213" fill-rule="nonzero"></path><path stroke="#000000" stroke-width="1.0" stroke-linejoin="round" stroke-linecap="butt" d="m26.871391 16.868767l0 36.299213" fill-rule="evenodd"></path><path fill="#000000" stroke="#000000" stroke-width="1.0" stroke-linecap="butt" d="m25.219658 53.16798l1.6517334 4.5380974l1.6517315 -4.5380974z" fill-rule="evenodd"></path><path fill="#000000" fill-opacity="0.0" d="m336.2362 17.291338l0 42.14173" fill-rule="nonzero"></path><path stroke="#000000" stroke-width="1.0" stroke-linejoin="round" stroke-linecap="butt" d="m336.2362 23.291338l0 36.14173" fill-rule="evenodd"></path><path fill="#000000" stroke="#000000" stroke-width="1.0" stroke-linecap="butt" d="m337.88794 23.291338l-1.6517334 -4.5380974l-1.6517029 4.5380974z" fill-rule="evenodd"></path><path fill="#000000" fill-opacity="0.0" d="m43.816273 77.826775l-33.889763 0l0 14.929131l33.889763 0z" fill-rule="nonzero"></path><path fill="#ff0000" d="m25.767662 90.25821l0 -3.546875l-3.5625 0l0 -2.4375l3.5625 0l0 -3.53125l2.375 0l0 3.53125l3.578125 0l0 2.4375l-3.578125 0l0 3.546875l-2.375 0z" fill-rule="nonzero"></path><path fill="#000000" fill-opacity="0.0" d="m349.05774 76.04202l-27.559052 0l0 14.929131l27.559052 0z" fill-rule="nonzero"></path><path fill="#0000ff" d="m331.85806 87.46846l0 -3.296875l6.46875 0l0 3.296875l-6.46875 0z" fill-rule="nonzero"></path><path fill="#ffffff" d="m168.57349 48.68504l0 0c0 -6.8796425 5.577057 -12.456692 12.456696 -12.456692l0 0c3.3037262 0 6.4721375 1.312397 8.808212 3.6484795c2.33609 2.3360825 3.6484833 5.50449 3.6484833 8.808212l0 0c0 6.8796425 -5.577057 12.456692 -12.456696 12.456692l0 0c-6.8796387 0 -12.456696 -5.5770493 -12.456696 -12.456692z" fill-rule="nonzero"></path><path stroke="#000000" stroke-width="1.0" stroke-linejoin="round" stroke-linecap="butt" d="m168.57349 48.68504l0 0c0 -6.8796425 5.577057 -12.456692 12.456696 -12.456692l0 0c3.3037262 0 6.4721375 1.312397 8.808212 3.6484795c2.33609 2.3360825 3.6484833 5.50449 3.6484833 8.808212l0 0c0 6.8796425 -5.577057 12.456692 -12.456696 12.456692l0 0c-6.8796387 0 -12.456696 -5.5770493 -12.456696 -12.456692z" fill-rule="nonzero"></path><path fill="#000000" fill-opacity="0.0" d="m165.18898 41.160107l31.685028 0l0 14.929131l-31.685028 0z" fill-rule="nonzero"></path><path fill="#000000" d="m180.16908 55.54467l-5.28125 -13.59375l1.953125 0l3.53125 9.875q0.4375 1.1875 0.71875 2.21875q0.3125 -1.109375 0.734375 -2.21875l3.671875 -9.875l1.84375 0l-5.328125 13.59375l-1.84375 0z" fill-rule="nonzero"></path><path fill="#000000" fill-opacity="0.0" d="m1.0551181 99.55905l357.88977 0" fill-rule="nonzero"></path><path stroke="#999999" stroke-width="1.0" stroke-linejoin="round" stroke-linecap="butt" d="m1.0551181 99.55905l357.88977 0" fill-rule="nonzero"></path><path fill="#000000" fill-opacity="0.0" d="m145.7708 98.18898l0 38.362198" fill-rule="nonzero"></path><path stroke="#000000" stroke-width="1.0" stroke-linejoin="round" stroke-linecap="butt" stroke-dasharray="4.0,3.0" d="m145.7708 98.18898l0 38.362198" fill-rule="nonzero"></path><path fill="#000000" fill-opacity="0.0" d="m335.27823 98.11813l0 66.04724" fill-rule="nonzero"></path><path stroke="#000000" stroke-width="1.0" stroke-linejoin="round" stroke-linecap="butt" stroke-dasharray="4.0,3.0" d="m335.27823 98.11813l0 66.04724" fill-rule="nonzero"></path><path fill="#000000" fill-opacity="0.0" d="m335.3727 136.80971l-189.35434 0" fill-rule="nonzero"></path><path stroke="#000000" stroke-width="1.0" stroke-linejoin="round" stroke-linecap="butt" d="m331.94562 136.80971l-182.50017 0" fill-rule="evenodd"></path><path fill="#000000" stroke="#000000" stroke-width="1.0" stroke-linecap="butt" d="m331.94562 136.80971l-1.1245728 1.124588l3.0897522 -1.124588l-3.0897522 -1.1245728z" fill-rule="evenodd"></path><path fill="#000000" stroke="#000000" stroke-width="1.0" stroke-linecap="butt" d="m149.44547 136.80971l1.1245728 -1.1245728l-3.0897675 1.1245728l3.0897675 1.124588z" fill-rule="evenodd"></path><path fill="#ffffff" d="m233.23491 128.94226l48.72441 0l0 14.929123l-48.72441 0z" fill-rule="nonzero"></path><path fill="#000000" d="m246.39717 143.32683l0 -9.859375l1.5 0l0 1.5q0.578125 -1.046875 1.0625 -1.375q0.484375 -0.34375 1.078125 -0.34375q0.84375 0 1.71875 0.546875l-0.578125 1.546875q-0.609375 -0.359375 -1.234375 -0.359375q-0.546875 0 -0.984375 0.328125q-0.421875 0.328125 -0.609375 0.90625q-0.28125 0.890625 -0.28125 1.953125l0 5.15625l-1.671875 0z" fill-rule="nonzero"></path><path fill="#000000" d="m252.2661 150.32683l0 -8.59375l1.71875 0l2.0312347 6.078125q0.28125 0.859375 0.40625 1.28125q0.140625 -0.46875 0.453125 -1.375l2.0625 -5.984375l1.53125 0l0 8.59375l-1.09375 0l0 -7.1875l-2.5 7.1875l-1.0312347 0l-2.484375 -7.3125l0 7.3125l-1.09375 0zm10.344742 0l0 -8.59375l3.234375 0q0.984375 0 1.578125 0.265625q0.59375 0.265625 0.921875 0.8125q0.34375 0.53125 0.34375 1.125q0 0.546875 -0.296875 1.03125q-0.296875 0.484375 -0.90625 0.78125q0.78125 0.234375 1.1875 0.796875q0.421875 0.546875 0.421875 1.296875q0 0.59375 -0.25 1.125q-0.25 0.515625 -0.625 0.796875q-0.375 0.28125 -0.953125 0.421875q-0.5625 0.140625 -1.375 0.140625l-3.28125 0zm1.140625 -4.984375l1.859375 0q0.75 0 1.078125 -0.09375q0.4375 -0.125 0.65625 -0.421875q0.21875 -0.3125 0.21875 -0.765625q0 -0.421875 -0.203125 -0.75q-0.203125 -0.328125 -0.59375 -0.4375q-0.375 -0.125 -1.296875 -0.125l-1.71875 0l0 2.59375zm0 3.96875l2.140625 0q0.546875 0 0.765625 -0.046875q0.40625 -0.0625 0.65625 -0.21875q0.265625 -0.171875 0.4375 -0.484375q0.171875 -0.3125 0.171875 -0.71875q0 -0.484375 -0.25 -0.84375q-0.234375 -0.359375 -0.671875 -0.5q-0.4375 -0.140625 -1.265625 -0.140625l-1.984375 0l0 2.953125z" fill-rule="nonzero"></path><path fill="#000000" fill-opacity="0.0" d="m145.93701 118.18569l-118.897644 0" fill-rule="nonzero"></path><path stroke="#000000" stroke-width="1.0" stroke-linejoin="round" stroke-linecap="butt" d="m142.50992 118.18569l-112.043465 0" fill-rule="evenodd"></path><path fill="#000000" stroke="#000000" stroke-width="1.0" stroke-linecap="butt" d="m142.50992 118.18569l-1.124588 1.124588l3.0897827 -1.124588l-3.0897827 -1.1245804z" fill-rule="evenodd"></path><path fill="#000000" stroke="#000000" stroke-width="1.0" stroke-linecap="butt" d="m30.466457 118.18569l1.1245823 -1.1245804l-3.0897675 1.1245804l3.0897675 1.124588z" fill-rule="evenodd"></path><path fill="#ffffff" d="m67.51837 109.7605l48.72441 0l0 16.850395l-48.72441 0z" fill-rule="nonzero"></path><path fill="#000000" d="m80.68063 125.10569l0 -9.859375l1.5 0l0 1.5q0.578125 -1.046875 1.0625 -1.375q0.484375 -0.34375 1.078125 -0.34375q0.84375 0 1.71875 0.546875l-0.578125 1.546875q-0.609375 -0.359375 -1.234375 -0.359375q-0.546875 0 -0.984375 0.328125q-0.421875 0.328125 -0.609375 0.90625q-0.28125 0.890625 -0.28125 1.953125l0 5.15625l-1.671875 0z" fill-rule="nonzero"></path><path fill="#000000" d="m85.64331 132.1057l3.296875 -8.59375l1.21875 0l3.515625 8.59375l-1.28125 0l-1.015625 -2.609375l-3.578125 0l-0.953125 2.609375l-1.203125 0zm2.484375 -3.53125l2.90625 0l-0.890625 -2.375q-0.421875 -1.078125 -0.609375 -1.78125q-0.171875 0.828125 -0.46875 1.640625l-0.9375 2.515625zm6.7174606 3.53125l0 -8.59375l1.71875 0l2.03125 6.078125q0.28125 0.859375 0.40625 1.28125q0.140625 -0.46875 0.453125 -1.375l2.0625 -5.984375l1.53125 0l0 8.59375l-1.09375 0l0 -7.1875l-2.5 7.1875l-1.03125 0l-2.484375 -7.3125l0 7.3125l-1.09375 0z" fill-rule="nonzero"></path><path fill="#000000" fill-opacity="0.0" d="m26.902887 98.708885l0 65.73228" fill-rule="nonzero"></path><path stroke="#000000" stroke-width="1.0" stroke-linejoin="round" stroke-linecap="butt" stroke-dasharray="4.0,3.0" d="m26.902887 98.708885l0 65.73228" fill-rule="nonzero"></path><path fill="#000000" fill-opacity="0.0" d="m335.5853 162.11023l-308.8504 0" fill-rule="nonzero"></path><path stroke="#000000" stroke-width="1.0" stroke-linejoin="round" stroke-linecap="butt" d="m332.15823 162.11023l-301.99625 0" fill-rule="evenodd"></path><path fill="#000000" stroke="#000000" stroke-width="1.0" stroke-linecap="butt" d="m332.1582 162.11023l-1.1245728 1.124588l3.0897827 -1.124588l-3.0897827 -1.1245728z" fill-rule="evenodd"></path><path fill="#000000" stroke="#000000" stroke-width="1.0" stroke-linecap="butt" d="m30.161995 162.11023l1.1245842 -1.1245728l-3.0897694 1.1245728l3.0897694 1.124588z" fill-rule="evenodd"></path><path fill="#000000" fill-opacity="0.0" d="m335.6063 118.18569l-119.30708 0" fill-rule="nonzero"></path><path stroke="#000000" stroke-width="1.0" stroke-linejoin="round" stroke-linecap="butt" d="m332.17923 118.18569l-112.45293 0" fill-rule="evenodd"></path><path fill="#000000" stroke="#000000" stroke-width="1.0" stroke-linecap="butt" d="m332.1792 118.18569l-1.1245728 1.124588l3.0897827 -1.124588l-3.0897827 -1.1245804z" fill-rule="evenodd"></path><path fill="#000000" stroke="#000000" stroke-width="1.0" stroke-linecap="butt" d="m219.7263 118.18569l1.1245728 -1.1245804l-3.0897675 1.1245804l3.0897675 1.124588z" fill-rule="evenodd"></path><path fill="#ffffff" d="m158.41339 154.64568l45.354324 0l0 14.929123l-45.354324 0z" fill-rule="nonzero"></path><path fill="#000000" d="m170.923 169.03023l0 -9.859375l1.5 0l0 1.5q0.578125 -1.046875 1.0625 -1.375q0.484375 -0.34375 1.078125 -0.34375q0.84375 0 1.71875 0.546875l-0.578125 1.546875q-0.609375 -0.359375 -1.234375 -0.359375q-0.546875 0 -0.984375 0.328125q-0.421875 0.328125 -0.609375 0.90625q-0.28125 0.890625 -0.28125 1.953125l0 5.15625l-1.671875 0z" fill-rule="nonzero"></path><path fill="#000000" d="m175.88568 176.03023l3.296875 -8.59375l1.21875 0l3.515625 8.59375l-1.28125 0l-1.015625 -2.609375l-3.578125 0l-0.953125 2.609375l-1.203125 0zm2.484375 -3.53125l2.90625 0l-0.890625 -2.375q-0.421875 -1.078125 -0.609375 -1.78125q-0.171875 0.828125 -0.46875 1.640625l-0.9375 2.515625zm6.701828 3.53125l0 -8.59375l3.234375 0q0.984375 0 1.578125 0.265625q0.59375 0.265625 0.921875 0.8125q0.34375 0.53125 0.34375 1.125q0 0.546875 -0.296875 1.03125q-0.296875 0.484375 -0.90625 0.78125q0.78125 0.234375 1.1875 0.796875q0.421875 0.546875 0.421875 1.296875q0 0.59375 -0.25 1.125q-0.25 0.515625 -0.625 0.796875q-0.375 0.28125 -0.953125 0.421875q-0.5625 0.140625 -1.375 0.140625l-3.28125 0zm1.140625 -4.984375l1.859375 0q0.75 0 1.078125 -0.09375q0.4375 -0.125 0.65625 -0.421875q0.21875 -0.3125 0.21875 -0.765625q0 -0.421875 -0.203125 -0.75q-0.203125 -0.328125 -0.59375 -0.4375q-0.375 -0.125 -1.296875 -0.125l-1.71875 0l0 2.59375zm0 3.96875l2.140625 0q0.546875 0 0.765625 -0.046875q0.40625 -0.0625 0.65625 -0.21875q0.265625 -0.171875 0.4375 -0.484375q0.171875 -0.3125 0.171875 -0.71875q0 -0.484375 -0.25 -0.84375q-0.234375 -0.359375 -0.671875 -0.5q-0.4375 -0.140625 -1.265625 -0.140625l-1.984375 0l0 2.953125z" fill-rule="nonzero"></path><path fill="#ffffff" d="m253.10104 110.29593l45.35434 0l0 15.779533l-45.35434 0z" fill-rule="nonzero"></path><path fill="#000000" d="m265.26755 125.10569l0 -9.859375l1.5 0l0 1.5q0.578125 -1.046875 1.0625 -1.375q0.484375 -0.34375 1.078125 -0.34375q0.84375 0 1.71875 0.546875l-0.578125 1.546875q-0.609375 -0.359375 -1.234375 -0.359375q-0.546875 0 -0.984375 0.328125q-0.421875 0.328125 -0.609375 0.90625q-0.28125 0.890625 -0.28125 1.953125l0 5.15625l-1.671875 0z" fill-rule="nonzero"></path><path fill="#000000" d="m271.16772 132.1057l0 -8.593758l1.15625 0l4.515625 6.7500076l0 -6.7500076l1.09375 0l0 8.593758l-1.171875 0l-4.515625 -6.7500076l0 6.7500076l-1.078125 0zm8.934937 0l0 -8.593758l3.234375 0q0.984375 0 1.578125 0.265625q0.59375 0.265625 0.921875 0.8125q0.34375 0.53125 0.34375 1.125q0 0.546875 -0.296875 1.03125q-0.296875 0.484375 -0.90625 0.78125q0.78125 0.234375 1.1875 0.7968826q0.421875 0.546875 0.421875 1.296875q0 0.59375 -0.25 1.125q-0.25 0.515625 -0.625 0.796875q-0.375 0.28125 -0.953125 0.421875q-0.5625 0.140625 -1.375 0.140625l-3.28125 0zm1.140625 -4.9843826l1.859375 0q0.75 0 1.078125 -0.09375q0.4375 -0.125 0.65625 -0.421875q0.21875 -0.3125 0.21875 -0.765625q0 -0.421875 -0.203125 -0.75q-0.203125 -0.328125 -0.59375 -0.4375q-0.375 -0.125 -1.296875 -0.125l-1.71875 0l0 2.59375zm0 3.9687576l2.140625 0q0.546875 0 0.765625 -0.046875q0.40625 -0.0625 0.65625 -0.21875q0.265625 -0.171875 0.4375 -0.484375q0.171875 -0.3125 0.171875 -0.71875q0 -0.484375 -0.25 -0.84375q-0.234375 -0.359375 -0.671875 -0.5q-0.4375 -0.140625 -1.265625 -0.140625l-1.984375 0l0 2.953125z" fill-rule="nonzero"></path><path fill="#ffffff" d="m169.0971 17.167978l0 0c0 -6.8796406 5.577057 -12.456692 12.456696 -12.456692l0 0c3.3037262 0 6.4721375 1.312398 8.808212 3.648481c2.33609 2.3360834 3.6484833 5.504492 3.6484833 8.808211l0 0c0 6.8796425 -5.577057 12.456694 -12.456696 12.456694l0 0c-6.8796387 0 -12.456696 -5.577051 -12.456696 -12.456694z" fill-rule="nonzero"></path><path stroke="#000000" stroke-width="1.0" stroke-linejoin="round" stroke-linecap="butt" d="m169.0971 17.167978l0 0c0 -6.8796406 5.577057 -12.456692 12.456696 -12.456692l0 0c3.3037262 0 6.4721375 1.312398 8.808212 3.648481c2.33609 2.3360834 3.6484833 5.504492 3.6484833 8.808211l0 0c0 6.8796425 -5.577057 12.456694 -12.456696 12.456694l0 0c-6.8796387 0 -12.456696 -5.577051 -12.456696 -12.456694z" fill-rule="nonzero"></path><path fill="#000000" fill-opacity="0.0" d="m165.71129 9.532808l31.685043 0l0 14.929134l-31.685043 0z" fill-rule="nonzero"></path><path fill="#000000" d="m180.72778 23.917374l0 -13.59375l1.8125 0l0 13.59375l-1.8125 0z" fill-rule="nonzero"></path><path fill="#000000" fill-opacity="0.0" d="m216.28873 98.02102l0 48.787407" fill-rule="nonzero"></path><path stroke="#000000" stroke-width="1.0" stroke-linejoin="round" stroke-linecap="butt" stroke-dasharray="4.0,3.0" d="m216.28873 98.02102l0 48.787407" fill-rule="nonzero"></path><path fill="#000000" fill-opacity="0.0" d="m216.27821 145.72835l-189.5433 0" fill-rule="nonzero"></path><path stroke="#000000" stroke-width="1.0" stroke-linejoin="round" stroke-linecap="butt" d="m212.85114 145.72835l-182.68915 0" fill-rule="evenodd"></path><path fill="#000000" stroke="#000000" stroke-width="1.0" stroke-linecap="butt" d="m212.85114 145.72835l-1.124588 1.124588l3.0897675 -1.124588l-3.0897675 -1.124588z" fill-rule="evenodd"></path><path fill="#000000" stroke="#000000" stroke-width="1.0" stroke-linecap="butt" d="m30.161995 145.72835l1.1245842 -1.124588l-3.0897694 1.124588l3.0897694 1.124588z" fill-rule="evenodd"></path><path fill="#ffffff" d="m93.52493 138.26378l45.35434 0l0 14.929138l-45.35434 0z" fill-rule="nonzero"></path><path fill="#000000" d="m105.69143 152.64835l0 -9.859375l1.5 0l0 1.5q0.578125 -1.046875 1.0625 -1.375q0.484375 -0.34375 1.078125 -0.34375q0.84375 0 1.71875 0.546875l-0.578125 1.546875q-0.609375 -0.359375 -1.234375 -0.359375q-0.546875 0 -0.984375 0.328125q-0.421875 0.328125 -0.609375 0.90625q-0.28125 0.890625 -0.28125 1.953125l0 5.15625l-1.671875 0z" fill-rule="nonzero"></path><path fill="#000000" d="m110.654106 159.64835l3.296875 -8.59375l1.21875 0l3.515625 8.59375l-1.28125 0l-1.015625 -2.609375l-3.578125 0l-0.953125 2.609375l-1.203125 0zm2.484375 -3.53125l2.90625 0l-0.890625 -2.375q-0.421875 -1.078125 -0.609375 -1.78125q-0.171875 0.828125 -0.46875 1.640625l-0.9375 2.515625zm6.7487106 3.53125l0 -8.59375l1.15625 0l4.515625 6.75l0 -6.75l1.09375 0l0 8.59375l-1.171875 0l-4.515625 -6.75l0 6.75l-1.078125 0z" fill-rule="nonzero"></path><path fill="#000000" fill-opacity="0.0" d="m216.53806 118.18569l-70.89763 0" fill-rule="nonzero"></path><path stroke="#000000" stroke-width="1.0" stroke-linejoin="round" stroke-linecap="butt" d="m213.11098 118.18569l-64.04347 0" fill-rule="evenodd"></path><path fill="#000000" stroke="#000000" stroke-width="1.0" stroke-linecap="butt" d="m213.11098 118.18569l-1.124588 1.124588l3.0897675 -1.124588l-3.0897675 -1.1245804z" fill-rule="evenodd"></path><path fill="#000000" stroke="#000000" stroke-width="1.0" stroke-linecap="butt" d="m149.0675 118.18569l1.124588 -1.1245804l-3.0897675 1.1245804l3.0897675 1.124588z" fill-rule="evenodd"></path><path fill="#ffffff" d="m156.22966 110.72113l49.76378 0l0 14.929131l-49.76378 0z" fill-rule="nonzero"></path><path fill="#000000" d="m169.56848 125.1057l0 -9.859375l1.5 0l0 1.5q0.578125 -1.046875 1.0625 -1.375q0.484375 -0.34375 1.078125 -0.34375q0.84375 0 1.71875 0.546875l-0.578125 1.546875q-0.609375 -0.359375 -1.234375 -0.359375q-0.546875 0 -0.984375 0.328125q-0.421875 0.328125 -0.609375 0.90625q-0.28125 0.890625 -0.28125 1.953125l0 5.15625l-1.671875 0z" fill-rule="nonzero"></path><path fill="#000000" d="m175.43741 132.1057l0 -8.59375l1.71875 0l2.03125 6.078125q0.28125 0.859375 0.40625 1.28125q0.140625 -0.46875 0.453125 -1.375l2.0625 -5.984375l1.53125 0l0 8.59375l-1.09375 0l0 -7.1875l-2.5 7.1875l-1.03125 0l-2.484375 -7.3125l0 7.3125l-1.09375 0zm10.391632 0l0 -8.59375l1.15625 0l4.515625 6.75l0 -6.75l1.09375 0l0 8.59375l-1.171875 0l-4.515625 -6.75l0 6.75l-1.078125 0z" fill-rule="nonzero"></path></g></svg>

