<?xml version="1.0" standalone="yes"?>

<svg version="1.1" viewBox="0.0 0.0 360.0 180.0" fill="none" stroke="none" stroke-linecap="square" stroke-miterlimit="10" xmlns="http://www.w3.org/2000/svg" xmlns:xlink="http://www.w3.org/1999/xlink"><clipPath id="p.0"><path d="m0 0l360.0 0l0 180.0l-360.0 0l0 -180.0z" clip-rule="nonzero"></path></clipPath><g clip-path="url(#p.0)"><path fill="#000000" fill-opacity="0.0" d="m0 0l360.0 0l0 180.0l-360.0 0z" fill-rule="nonzero"></path><path fill="#ffff00" d="m205.5433 82.61155l9.795273 19.181099l9.795288 -19.181099z" fill-rule="nonzero"></path><path stroke="#000000" stroke-width="1.0" stroke-linejoin="round" stroke-linecap="butt" d="m205.5433 82.61155l9.795273 19.181099l9.795288 -19.181099z" fill-rule="nonzero"></path><path fill="#00ff00" d="m307.315 82.87139l9.795288 19.181099l9.795258 -19.181099z" fill-rule="nonzero"></path><path stroke="#000000" stroke-width="1.0" stroke-linejoin="round" stroke-linecap="butt" d="m307.315 82.87139l9.795288 19.181099l9.795258 -19.181099z" fill-rule="nonzero"></path><path fill="#ea9999" d="m8.687664 81.761375l9.795275 20.88189l9.795277 -20.88189z" fill-rule="nonzero"></path><path stroke="#000000" stroke-width="1.0" stroke-linejoin="round" stroke-linecap="butt" d="m8.687664 81.761375l9.795275 20.88189l9.795277 -20.88189z" fill-rule="nonzero"></path><path fill="#a4c2f4" d="m109.86615 82.871414l8.992126 19.181099l8.992126 -19.181099z" fill-rule="nonzero"></path><path stroke="#000000" stroke-width="1.0" stroke-linejoin="round" stroke-linecap="butt" d="m109.86615 82.871414l8.992126 19.181099l8.992126 -19.181099z" fill-rule="nonzero"></path><path fill="#000000" fill-opacity="0.0" d="m198.3937 56.341614l33.889755 0l0 32.97638l-33.889755 0z" fill-rule="nonzero"></path><path fill="#000000" d="m208.79996 79.7498l0 -13.59375l2.71875 0l3.21875 9.625q0.4375 1.34375 0.640625 2.015625q0.234375 -0.75 0.734375 -2.1875l3.25 -9.453125l2.421875 0l0 13.59375l-1.734375 0l0 -11.390625l-3.953125 11.390625l-1.625 0l-3.9375 -11.578125l0 11.578125l-1.734375 0z" fill-rule="nonzero"></path><path fill="#000000" fill-opacity="0.0" d="m2.8661418 56.341476l33.889763 0l0 30.3937l-33.889763 0z" fill-rule="nonzero"></path><path fill="#000000" d="m11.834891 78.45833l5.234376 -13.59375l1.9375 0l5.5625 13.59375l-2.046875 0l-1.59375 -4.125l-5.687501 0l-1.484375 4.125l-1.921875 0zm3.921875 -5.578125l4.609376 0l-1.40625 -3.78125q-0.65625 -1.703125 -0.96875 -2.8125q-0.265625 1.3125 -0.734375 2.59375l-1.500001 4.0z" fill-rule="nonzero"></path><path fill="#000000" fill-opacity="0.0" d="m300.16666 56.341587l33.88977 0l0 32.976376l-33.88977 0z" fill-rule="nonzero"></path><path fill="#000000" d="m310.61978 79.74977l0 -13.59375l1.84375 0l7.140625 10.671875l0 -10.671875l1.71875 0l0 13.59375l-1.84375 0l-7.140625 -10.6875l0 10.6875l-1.71875 0z" fill-rule="nonzero"></path><path fill="#000000" fill-opacity="0.0" d="m102.87139 56.60144l33.889763 0l0 32.97638l-33.889763 0z" fill-rule="nonzero"></path><path fill="#000000" d="m113.26202 80.00963l0 -13.59375l5.109375 0q1.546875 0 2.484375 0.40625q0.953125 0.40625 1.484375 1.265625q0.53125 0.859375 0.53125 1.796875q0 0.875 -0.46875 1.65625q-0.46875 0.765625 -1.4375 1.234375q1.234375 0.359375 1.890625 1.234375q0.671875 0.875 0.671875 2.0625q0 0.953125 -0.40625 1.78125q-0.390625 0.8125 -0.984375 1.265625q-0.59375 0.4375 -1.5 0.671875q-0.890625 0.21875 -2.1875 0.21875l-5.1875 0zm1.796875 -7.890625l2.9375 0q1.203125 0 1.71875 -0.15625q0.6875 -0.203125 1.03125 -0.671875q0.359375 -0.46875 0.359375 -1.1875q0 -0.671875 -0.328125 -1.1875q-0.328125 -0.515625 -0.9375 -0.703125q-0.59375 -0.203125 -2.0625 -0.203125l-2.71875 0l0 4.109375zm0 6.28125l3.390625 0q0.875 0 1.21875 -0.0625q0.625 -0.109375 1.046875 -0.359375q0.421875 -0.265625 0.6875 -0.765625q0.265625 -0.5 0.265625 -1.140625q0 -0.765625 -0.390625 -1.328125q-0.390625 -0.5625 -1.078125 -0.78125q-0.6875 -0.234375 -1.984375 -0.234375l-3.15625 0l0 4.671875z" fill-rule="nonzero"></path><path fill="#000000" fill-opacity="0.0" d="m215.46982 28.559462l101.76376 0" fill-rule="nonzero"></path><path stroke="#000000" stroke-width="1.0" stroke-linejoin="round" stroke-linecap="butt" d="m215.46982 28.559462l101.76376 0" fill-rule="nonzero"></path><path fill="#000000" fill-opacity="0.0" d="m215.33858 56.341614l0 0" fill-rule="nonzero"></path><path stroke="#000000" stroke-width="1.0" stroke-linejoin="round" stroke-linecap="butt" d="m215.33858 56.341614l0 0" fill-rule="nonzero"></path><path fill="#000000" fill-opacity="0.0" d="m215.46982 63.34646l0 -34.67717" fill-rule="nonzero"></path><path stroke="#000000" stroke-width="1.0" stroke-linejoin="round" stroke-linecap="butt" d="m215.46982 63.34646l0 -34.67717" fill-rule="nonzero"></path><path fill="#000000" fill-opacity="0.0" d="m317.11023 63.10499l0 -34.677166" fill-rule="nonzero"></path><path stroke="#000000" stroke-width="1.0" stroke-linejoin="round" stroke-linecap="butt" d="m317.11023 63.10499l0 -34.677166" fill-rule="nonzero"></path><path fill="#000000" fill-opacity="0.0" d="m18.425198 28.931759l101.82677 0" fill-rule="nonzero"></path><path stroke="#000000" stroke-width="1.0" stroke-linejoin="round" stroke-linecap="butt" d="m18.425198 28.931759l101.82677 0" fill-rule="nonzero"></path><path fill="#000000" fill-opacity="0.0" d="m19.811024 56.341476l0 0" fill-rule="nonzero"></path><path stroke="#000000" stroke-width="1.0" stroke-linejoin="round" stroke-linecap="butt" d="m19.811024 56.341476l0 0" fill-rule="nonzero"></path><path fill="#000000" fill-opacity="0.0" d="m18.451443 28.908136l0 34.204727" fill-rule="nonzero"></path><path stroke="#000000" stroke-width="1.0" stroke-linejoin="round" stroke-linecap="butt" d="m18.451443 28.908136l0 28.204725" fill-rule="evenodd"></path><path fill="#000000" stroke="#000000" stroke-width="1.0" stroke-linecap="butt" d="m16.799711 57.11286l1.6517315 4.5380974l1.6517334 -4.5380974z" fill-rule="evenodd"></path><path fill="#000000" fill-opacity="0.0" d="m119.81628 29.356081l0 34.015747" fill-rule="nonzero"></path><path stroke="#000000" stroke-width="1.0" stroke-linejoin="round" stroke-linecap="butt" d="m119.81628 35.356083l0 28.015743" fill-rule="evenodd"></path><path fill="#000000" stroke="#000000" stroke-width="1.0" stroke-linecap="butt" d="m121.468 35.356083l-1.6517258 -4.5380993l-1.6517334 4.5380993z" fill-rule="evenodd"></path><path fill="#000000" fill-opacity="0.0" d="m35.396324 81.761154l-33.889763 0l0 14.929138l33.889763 0z" fill-rule="nonzero"></path><path fill="#ff0000" d="m17.347713 94.1926l0 -3.546875l-3.5625 0l0 -2.4375l3.5625 0l0 -3.53125l2.375 0l0 3.53125l3.578125 0l0 2.4375l-3.578125 0l0 3.546875l-2.375 0z" fill-rule="nonzero"></path><path fill="#000000" fill-opacity="0.0" d="m132.6378 79.9764l-27.55906 0l0 14.929131l27.55906 0z" fill-rule="nonzero"></path><path fill="#0000ff" d="m115.43812 91.40285l0 -3.296875l6.46875 0l0 3.296875l-6.46875 0z" fill-rule="nonzero"></path><path fill="#ffffff" d="m253.87534 28.485565l0 0c0 -6.8796425 5.577057 -12.456694 12.456696 -12.456694l0 0c3.303711 0 6.472107 1.312397 8.808197 3.6484814c2.33609 2.3360825 3.6484985 5.504492 3.6484985 8.808212l0 0c0 6.8796425 -5.577057 12.456692 -12.456696 12.456692l0 0c-6.8796387 0 -12.456696 -5.5770493 -12.456696 -12.456692z" fill-rule="nonzero"></path><path stroke="#000000" stroke-width="1.0" stroke-linejoin="round" stroke-linecap="butt" d="m253.87534 28.485565l0 0c0 -6.8796425 5.577057 -12.456694 12.456696 -12.456694l0 0c3.303711 0 6.472107 1.312397 8.808197 3.6484814c2.33609 2.3360825 3.6484985 5.504492 3.6484985 8.808212l0 0c0 6.8796425 -5.577057 12.456692 -12.456696 12.456692l0 0c-6.8796387 0 -12.456696 -5.5770493 -12.456696 -12.456692z" fill-rule="nonzero"></path><path fill="#000000" fill-opacity="0.0" d="m250.4895 21.020998l31.685028 0l0 14.929132l-31.685028 0z" fill-rule="nonzero"></path><path fill="#000000" d="m265.4696 35.405563l-5.28125 -13.59375l1.953125 0l3.53125 9.875q0.4375 1.1875 0.71875 2.21875q0.3125 -1.109375 0.734375 -2.21875l3.671875 -9.875l1.84375 0l-5.328125 13.59375l-1.84375 0z" fill-rule="nonzero"></path><path fill="#000000" fill-opacity="0.0" d="m0.6351706 103.49344l332.50394 0" fill-rule="nonzero"></path><path stroke="#999999" stroke-width="1.0" stroke-linejoin="round" stroke-linecap="butt" d="m0.6351706 103.49344l332.50394 0" fill-rule="nonzero"></path><path fill="#000000" fill-opacity="0.0" d="m215.33858 101.79265l0 40.944885" fill-rule="nonzero"></path><path stroke="#000000" stroke-width="1.0" stroke-linejoin="round" stroke-linecap="butt" stroke-dasharray="4.0,3.0" d="m215.33858 101.79265l0 40.944885" fill-rule="nonzero"></path><path fill="#000000" fill-opacity="0.0" d="m118.85828 102.05251l0 60.44094" fill-rule="nonzero"></path><path stroke="#000000" stroke-width="1.0" stroke-linejoin="round" stroke-linecap="butt" stroke-dasharray="4.0,3.0" d="m118.85828 102.05251l0 60.44094" fill-rule="nonzero"></path><path fill="#000000" fill-opacity="0.0" d="m215.5958 132.4462l-96.7244 0" fill-rule="nonzero"></path><path stroke="#000000" stroke-width="1.0" stroke-linejoin="round" stroke-linecap="butt" d="m212.16872 132.4462l-89.87024 0" fill-rule="evenodd"></path><path fill="#000000" stroke="#000000" stroke-width="1.0" stroke-linecap="butt" d="m212.16872 132.4462l-1.124588 1.1245728l3.0897675 -1.1245728l-3.0897675 -1.124588z" fill-rule="evenodd"></path><path fill="#000000" stroke="#000000" stroke-width="1.0" stroke-linecap="butt" d="m122.29848 132.4462l1.1245804 -1.124588l-3.0897675 1.124588l3.0897675 1.1245728z" fill-rule="evenodd"></path><path fill="#ffffff" d="m142.73622 124.57874l48.72441 0l0 14.929131l-48.72441 0z" fill-rule="nonzero"></path><path fill="#000000" d="m154.51248 138.9633l0 -13.59375l2.71875 0l3.21875 9.625q0.4375 1.34375 0.640625 2.015625q0.234375 -0.75 0.734375 -2.1875l3.25 -9.453125l2.421875 0l0 13.59375l-1.734375 0l0 -11.390625l-3.953125 11.390625l-1.625 0l-3.9375 -11.578125l0 11.578125l-1.734375 0zm15.525177 0l0 -13.59375l5.109375 0q1.546875 0 2.484375 0.40625q0.953125 0.40625 1.484375 1.265625q0.53125 0.859375 0.53125 1.796875q0 0.875 -0.46875 1.65625q-0.46875 0.765625 -1.4375 1.234375q1.234375 0.359375 1.890625 1.234375q0.671875 0.875 0.671875 2.0625q0 0.953125 -0.40625 1.78125q-0.390625 0.8125 -0.984375 1.265625q-0.59375 0.4375 -1.5 0.671875q-0.890625 0.21875 -2.1875 0.21875l-5.1875 0zm1.796875 -7.890625l2.9375 0q1.203125 0 1.71875 -0.15625q0.6875 -0.203125 1.03125 -0.671875q0.359375 -0.46875 0.359375 -1.1875q0 -0.671875 -0.328125 -1.1875q-0.328125 -0.515625 -0.9375 -0.703125q-0.59375 -0.203125 -2.0625 -0.203125l-2.71875 0l0 4.109375zm0 6.28125l3.390625 0q0.875 0 1.21875 -0.0625q0.625 -0.109375 1.046875 -0.359375q0.421875 -0.265625 0.6875 -0.765625q0.265625 -0.5 0.265625 -1.140625q0 -0.765625 -0.390625 -1.328125q-0.390625 -0.5625 -1.078125 -0.78125q-0.6875 -0.234375 -1.984375 -0.234375l-3.15625 0l0 4.671875z" fill-rule="nonzero"></path><path fill="#000000" fill-opacity="0.0" d="m215.38321 116.4462l-196.81891 0" fill-rule="nonzero"></path><path stroke="#000000" stroke-width="1.0" stroke-linejoin="round" stroke-linecap="butt" d="m211.95612 116.4462l-189.96472 0" fill-rule="evenodd"></path><path fill="#000000" stroke="#000000" stroke-width="1.0" stroke-linecap="butt" d="m211.95612 116.4462l-1.124588 1.1245804l3.0897675 -1.1245804l-3.0897675 -1.124588z" fill-rule="evenodd"></path><path fill="#000000" stroke="#000000" stroke-width="1.0" stroke-linecap="butt" d="m21.99139 116.4462l1.1245842 -1.124588l-3.0897675 1.124588l3.0897675 1.1245804z" fill-rule="evenodd"></path><path fill="#ffffff" d="m92.53281 108.020996l48.72441 0l0 16.850395l-48.72441 0z" fill-rule="nonzero"></path><path fill="#000000" d="m102.871574 123.366196l5.234375 -13.59375l1.9375 0l5.5625 13.59375l-2.046875 0l-1.59375 -4.125l-5.6875 0l-1.484375 4.125l-1.921875 0zm3.921875 -5.578125l4.609375 0l-1.40625 -3.78125q-0.65625 -1.703125 -0.96875 -2.8125q-0.265625 1.3125 -0.734375 2.59375l-1.5 4.0zm9.959198 5.578125l0 -13.59375l2.71875 0l3.21875 9.625q0.4375 1.34375 0.640625 2.015625q0.234375 -0.75 0.734375 -2.1875l3.25 -9.453125l2.4218826 0l0 13.59375l-1.734375 0l0 -11.390625l-3.9531326 11.390625l-1.625 0l-3.9375 -11.578125l0 11.578125l-1.734375 0z" fill-rule="nonzero"></path><path fill="#000000" fill-opacity="0.0" d="m18.482939 102.643265l0 65.732285" fill-rule="nonzero"></path><path stroke="#000000" stroke-width="1.0" stroke-linejoin="round" stroke-linecap="butt" stroke-dasharray="4.0,3.0" d="m18.482939 102.643265l0 65.732285" fill-rule="nonzero"></path><path fill="#000000" fill-opacity="0.0" d="m317.11285 101.343834l0 68.28347" fill-rule="nonzero"></path><path stroke="#000000" stroke-width="1.0" stroke-linejoin="round" stroke-linecap="butt" stroke-dasharray="4.0,3.0" d="m317.11285 101.343834l0 68.28347" fill-rule="nonzero"></path><path fill="#000000" fill-opacity="0.0" d="m316.56955 166.04462l-297.5748 0" fill-rule="nonzero"></path><path stroke="#000000" stroke-width="1.0" stroke-linejoin="round" stroke-linecap="butt" d="m313.14246 166.04462l-290.7206 0" fill-rule="evenodd"></path><path fill="#000000" stroke="#000000" stroke-width="1.0" stroke-linecap="butt" d="m313.14246 166.04462l-1.1245728 1.124588l3.0897827 -1.124588l-3.0897827 -1.124588z" fill-rule="evenodd"></path><path fill="#000000" stroke="#000000" stroke-width="1.0" stroke-linecap="butt" d="m22.421837 166.04462l1.1245842 -1.124588l-3.0897675 1.124588l3.0897675 1.124588z" fill-rule="evenodd"></path><path fill="#000000" fill-opacity="0.0" d="m317.11023 149.0433l-198.2677 0" fill-rule="nonzero"></path><path stroke="#000000" stroke-width="1.0" stroke-linejoin="round" stroke-linecap="butt" d="m313.68317 149.0433l-191.41357 0" fill-rule="evenodd"></path><path fill="#000000" stroke="#000000" stroke-width="1.0" stroke-linecap="butt" d="m313.68314 149.0433l-1.1245728 1.124588l3.0897827 -1.124588l-3.0897827 -1.124588z" fill-rule="evenodd"></path><path fill="#000000" stroke="#000000" stroke-width="1.0" stroke-linecap="butt" d="m122.26961 149.0433l1.1245804 -1.124588l-3.0897675 1.124588l3.0897675 1.124588z" fill-rule="evenodd"></path><path fill="#ffffff" d="m145.69554 158.58005l45.354324 0l0 14.929138l-45.354324 0z" fill-rule="nonzero"></path><path fill="#000000" d="m155.3832 172.96461l5.234375 -13.59375l1.9375 0l5.5625 13.59375l-2.046875 0l-1.59375 -4.125l-5.6875 0l-1.484375 4.125l-1.921875 0zm3.921875 -5.578125l4.609375 0l-1.40625 -3.78125q-0.65625 -1.703125 -0.96875 -2.8125q-0.265625 1.3125 -0.734375 2.59375l-1.5 4.0zm10.006073 5.578125l0 -13.59375l1.84375 0l7.140625 10.671875l0 -10.671875l1.71875 0l0 13.59375l-1.84375 0l-7.140625 -10.6875l0 10.6875l-1.71875 0z" fill-rule="nonzero"></path><path fill="#ffffff" d="m192.72966 141.15486l45.354324 0l0 15.779526l-45.354324 0z" fill-rule="nonzero"></path><path fill="#000000" d="m203.90169 155.96461l0 -13.59375l1.84375 0l7.140625 10.671875l0 -10.671875l1.71875 0l0 13.59375l-1.84375 0l-7.140625 -10.6875l0 10.6875l-1.71875 0zm13.410446 0l0 -13.59375l5.109375 0q1.546875 0 2.484375 0.40625q0.953125 0.40625 1.484375 1.265625q0.53125 0.859375 0.53125 1.796875q0 0.875 -0.46875 1.65625q-0.46875 0.765625 -1.4375 1.234375q1.234375 0.359375 1.890625 1.234375q0.671875 0.875 0.671875 2.0625q0 0.953125 -0.40625 1.78125q-0.390625 0.8125 -0.984375 1.265625q-0.59375 0.4375 -1.5 0.671875q-0.890625 0.21875 -2.1875 0.21875l-5.1875 0zm1.796875 -7.890625l2.9375 0q1.203125 0 1.71875 -0.15625q0.6875 -0.203125 1.03125 -0.671875q0.359375 -0.46875 0.359375 -1.1875q0 -0.671875 -0.328125 -1.1875q-0.328125 -0.515625 -0.9375 -0.703125q-0.59375 -0.203125 -2.0625 -0.203125l-2.71875 0l0 4.109375zm0 6.28125l3.390625 0q0.875 0 1.21875 -0.0625q0.625 -0.109375 1.046875 -0.359375q0.421875 -0.265625 0.6875 -0.765625q0.265625 -0.5 0.265625 -1.140625q0 -0.765625 -0.390625 -1.328125q-0.390625 -0.5625 -1.078125 -0.78125q-0.6875 -0.234375 -1.984375 -0.234375l-3.15625 0l0 4.671875z" fill-rule="nonzero"></path><path fill="#ffffff" d="m56.677166 29.102362l0 0c0 -6.8796406 5.5770493 -12.456692 12.456692 -12.456692l0 0c3.3037186 0 6.47213 1.312397 8.808212 3.6484795c2.3360825 2.3360844 3.6484833 5.504492 3.6484833 8.808212l0 0c0 6.8796406 -5.577057 12.456694 -12.456696 12.456694l0 0c-6.8796425 0 -12.456692 -5.577053 -12.456692 -12.456694z" fill-rule="nonzero"></path><path stroke="#000000" stroke-width="1.0" stroke-linejoin="round" stroke-linecap="butt" d="m56.677166 29.102362l0 0c0 -6.8796406 5.5770493 -12.456692 12.456692 -12.456692l0 0c3.3037186 0 6.47213 1.312397 8.808212 3.6484795c2.3360825 2.3360844 3.6484833 5.504492 3.6484833 8.808212l0 0c0 6.8796406 -5.577057 12.456694 -12.456696 12.456694l0 0c-6.8796425 0 -12.456692 -5.577053 -12.456692 -12.456694z" fill-rule="nonzero"></path><path fill="#000000" fill-opacity="0.0" d="m53.29134 21.467192l31.68504 0l0 14.929132l-31.68504 0z" fill-rule="nonzero"></path><path fill="#000000" d="m68.30783 35.851757l0 -13.59375l1.8125 0l0 13.59375l-1.8125 0z" fill-rule="nonzero"></path></g></svg>

